<?xml version="1.0" standalone="no"?>
<!DOCTYPE svg PUBLIC "-//W3C//DTD SVG 20010904//EN"
 "http://www.w3.org/TR/2001/REC-SVG-20010904/DTD/svg10.dtd">
<svg version="1.0" xmlns="http://www.w3.org/2000/svg"
 width="700.000000pt" height="700.000000pt" viewBox="0 0 700.000000 700.000000"
 preserveAspectRatio="xMidYMid meet">
<metadata>
Created by potrace 1.14, written by Peter Selinger 2001-2017
</metadata>
<g transform="translate(0.000000,700.000000) scale(0.100000,-0.100000)"
fill="#000000" stroke="none">
<path d="M3348 6605 c-1 -1 -30 -5 -63 -8 -33 -4 -70 -8 -81 -11 -12 -2 -39
-7 -60 -10 -92 -15 -263 -61 -319 -86 -11 -5 -45 -19 -75 -30 -54 -21 -280
-137 -290 -149 -3 -3 -30 -22 -60 -42 -70 -46 -169 -125 -242 -194 -32 -30
-83 -69 -115 -87 -32 -17 -60 -34 -63 -37 -3 -4 -16 -12 -30 -20 -61 -33 -258
-181 -352 -264 -464 -411 -768 -918 -908 -1512 -12 -49 -24 -101 -26 -115 -2
-14 -6 -34 -9 -46 -2 -11 -7 -45 -11 -75 -3 -30 -7 -65 -10 -79 -24 -149 -23
-484 1 -685 3 -16 7 -50 10 -74 19 -151 80 -389 144 -565 174 -471 467 -892
841 -1205 41 -35 86 -73 100 -84 50 -43 268 -185 370 -242 90 -51 305 -153
335 -160 6 -1 24 -8 40 -14 40 -17 132 -47 230 -76 69 -20 95 -26 160 -41 6
-1 22 -4 38 -7 15 -3 35 -8 45 -11 9 -2 39 -7 66 -11 27 -3 52 -8 55 -9 3 -2
44 -7 91 -11 47 -4 94 -9 105 -12 29 -6 413 -6 460 0 22 3 65 9 95 12 64 7
131 16 145 19 6 2 33 6 60 10 28 5 109 23 182 42 586 149 1143 504 1513 965
25 31 56 69 68 85 60 74 199 296 261 416 102 198 206 469 236 617 2 9 9 39 15
66 14 62 16 69 25 125 4 25 9 54 11 65 2 11 6 40 9 65 3 25 8 61 11 80 3 19 8
134 10 255 3 218 -5 354 -31 495 -2 14 -7 43 -10 65 -3 22 -13 69 -21 105 -9
36 -17 74 -19 85 -7 47 -80 269 -122 370 -53 131 -136 299 -195 396 -24 38
-47 78 -53 87 -31 55 -175 247 -245 327 -91 105 -322 324 -394 375 -12 8 -30
23 -41 33 -24 22 -258 178 -300 200 -16 8 -46 32 -65 52 -42 45 -220 191 -275
226 -22 14 -61 40 -88 57 -80 51 -266 138 -377 175 -105 36 -292 81 -386 92
-52 7 -390 15 -396 10z"/>
</g>
</svg>
