<?xml version="1.0" standalone="no"?>
<!DOCTYPE svg PUBLIC "-//W3C//DTD SVG 20010904//EN"
 "http://www.w3.org/TR/2001/REC-SVG-20010904/DTD/svg10.dtd">
<svg version="1.0" xmlns="http://www.w3.org/2000/svg"
 width="1576.000000pt" height="1576.000000pt" viewBox="0 0 1576.000000 1576.000000"
 preserveAspectRatio="xMidYMid meet">
<metadata>
Created by potrace 1.14, written by Peter Selinger 2001-2017
</metadata>
<g transform="translate(0.000000,1576.000000) scale(0.100000,-0.100000)"
fill="#000000" stroke="none">
<path d="M7559 15746 c-2 -2 -67 -7 -144 -10 -77 -4 -156 -9 -175 -11 -19 -3
-66 -7 -105 -10 -38 -2 -86 -7 -105 -10 -19 -2 -60 -7 -90 -10 -30 -4 -66 -8
-80 -10 -14 -2 -61 -9 -105 -15 -44 -6 -93 -13 -110 -15 -66 -11 -362 -65
-385 -71 -14 -3 -36 -7 -50 -10 -39 -8 -271 -63 -310 -74 -19 -5 -78 -21 -130
-35 -218 -59 -674 -211 -765 -255 -11 -5 -45 -19 -75 -30 -30 -11 -64 -25 -75
-30 -11 -5 -74 -32 -140 -61 -157 -67 -493 -232 -625 -307 -58 -32 -127 -72
-155 -87 -27 -15 -92 -54 -144 -86 -51 -33 -95 -59 -97 -59 -7 0 -236 -153
-342 -229 -52 -36 -104 -73 -115 -81 -99 -68 -424 -327 -533 -425 -12 -11 -51
-46 -85 -77 -218 -192 -571 -552 -715 -728 -16 -19 -35 -41 -42 -49 -8 -8 -39
-46 -70 -85 -31 -39 -63 -77 -69 -84 -7 -7 -34 -41 -60 -75 -26 -34 -53 -69
-60 -77 -160 -198 -471 -679 -647 -1000 -73 -133 -306 -609 -306 -625 0 -3
-11 -28 -24 -57 -14 -29 -41 -96 -61 -148 -20 -52 -40 -104 -45 -115 -88 -192
-310 -946 -355 -1205 -3 -19 -10 -53 -15 -75 -5 -22 -12 -56 -15 -75 -7 -41
-23 -136 -29 -165 -2 -11 -7 -45 -11 -75 -4 -30 -9 -64 -11 -75 -10 -55 -38
-288 -49 -415 -4 -41 -8 -86 -10 -98 -26 -164 -25 -1092 0 -1254 2 -13 6 -61
10 -108 4 -47 8 -98 10 -115 2 -16 6 -55 10 -85 6 -56 13 -113 21 -161 2 -15
6 -47 9 -70 5 -42 29 -186 40 -239 3 -14 12 -65 21 -115 8 -49 17 -92 19 -95
2 -4 7 -22 10 -41 8 -46 62 -281 80 -344 66 -237 115 -398 156 -518 27 -78 51
-149 53 -157 6 -26 151 -389 185 -465 18 -38 44 -97 59 -130 74 -167 262 -529
361 -695 31 -52 58 -99 60 -104 10 -23 193 -305 274 -421 85 -123 241 -333
297 -401 14 -17 32 -40 40 -50 25 -32 104 -129 110 -134 3 -3 34 -39 70 -80
36 -41 69 -80 75 -86 214 -237 434 -456 637 -637 42 -38 89 -80 105 -94 54
-48 409 -329 488 -387 145 -105 275 -194 380 -260 39 -25 102 -65 140 -89 285
-182 754 -421 1135 -579 254 -106 768 -281 915 -312 11 -3 81 -21 155 -40 74
-19 146 -37 160 -40 14 -3 79 -17 145 -30 66 -14 134 -28 152 -31 18 -3 52 -9
75 -14 24 -5 65 -12 92 -16 27 -3 52 -8 55 -10 3 -1 33 -6 66 -9 33 -3 71 -8
85 -11 58 -11 89 -15 155 -21 39 -3 73 -8 76 -9 3 -2 47 -7 97 -10 51 -3 100
-8 110 -10 140 -26 1141 -27 1322 0 14 2 57 6 95 10 78 6 91 8 260 30 158 20
174 23 280 41 50 8 104 17 120 20 17 3 37 7 45 9 8 2 35 7 60 10 24 4 47 8 50
10 3 2 21 6 40 9 19 3 46 8 60 12 14 3 43 10 65 14 90 19 406 103 497 131 53
16 105 32 115 34 10 2 52 16 93 30 41 15 95 33 120 40 74 22 401 147 490 187
19 9 85 38 145 64 222 97 651 320 860 447 279 171 730 485 876 611 19 17 46
40 60 51 34 28 221 187 235 200 179 165 237 220 338 321 168 168 309 322 490
534 60 72 280 354 318 410 10 14 38 54 64 90 275 388 553 877 756 1330 64 144
203 492 214 535 4 17 10 35 14 40 18 23 196 610 214 705 2 14 16 70 30 125 13
55 27 114 29 130 3 17 12 62 20 100 9 39 18 86 21 106 3 20 7 42 10 50 3 8 7
34 10 59 4 25 10 70 16 100 17 100 23 140 40 280 26 221 28 247 35 365 4 55 8
111 10 123 5 31 20 446 19 542 0 104 -18 454 -29 568 -3 28 -7 76 -10 105 -12
133 -31 303 -39 342 -2 11 -7 45 -10 75 -4 30 -8 66 -11 80 -2 14 -11 63 -19
110 -46 266 -111 547 -191 830 -49 172 -140 456 -155 482 -6 10 -10 22 -10 28
0 10 -96 260 -125 325 -7 17 -34 80 -60 140 -26 61 -88 196 -139 300 -81 164
-133 264 -271 510 -78 139 -387 613 -414 635 -4 3 -15 18 -25 35 -11 16 -23
34 -28 40 -4 5 -44 57 -88 115 -44 58 -86 112 -93 120 -7 8 -30 37 -52 65
-190 237 -499 566 -739 788 -156 145 -166 154 -278 249 -37 31 -74 62 -82 70
-9 7 -21 18 -28 23 -308 243 -610 460 -795 571 -18 10 -90 53 -160 95 -325
195 -721 394 -1013 511 -41 16 -88 36 -105 43 -206 93 -904 310 -1155 359 -14
2 -79 16 -145 30 -141 30 -282 55 -390 71 -22 3 -65 10 -95 15 -30 5 -84 12
-120 16 -36 3 -73 8 -82 9 -9 2 -45 6 -80 10 -35 3 -81 8 -103 10 -22 2 -78 7
-125 10 -47 4 -105 9 -130 11 -52 6 -796 14 -801 10z"/>
</g>
</svg>
