<?xml version="1.0" standalone="no"?>
<!DOCTYPE svg PUBLIC "-//W3C//DTD SVG 20010904//EN"
 "http://www.w3.org/TR/2001/REC-SVG-20010904/DTD/svg10.dtd">
<svg version="1.0" xmlns="http://www.w3.org/2000/svg"
 width="1575.000000pt" height="1575.000000pt" viewBox="0 0 1575.000000 1575.000000"
 preserveAspectRatio="xMidYMid meet">
<metadata>
Created by potrace 1.14, written by Peter Selinger 2001-2017
</metadata>
<g transform="translate(0.000000,1575.000000) scale(0.100000,-0.100000)"
fill="#000000" stroke="none">
<path d="M7558 15745 c-2 -1 -70 -6 -151 -10 -81 -3 -156 -8 -165 -9 -9 -2
-53 -7 -97 -11 -44 -3 -93 -8 -110 -10 -33 -4 -130 -15 -185 -21 -31 -3 -84
-11 -130 -19 -8 -2 -37 -6 -65 -9 -27 -4 -108 -18 -180 -31 -71 -13 -144 -26
-161 -29 -23 -4 -209 -46 -314 -71 -409 -96 -912 -269 -1355 -465 -95 -42
-459 -224 -561 -281 -294 -164 -583 -347 -824 -523 -167 -121 -396 -300 -474
-371 -6 -5 -40 -35 -76 -65 -36 -30 -67 -57 -70 -60 -3 -3 -36 -35 -75 -70
-275 -249 -594 -588 -810 -860 -33 -41 -63 -77 -66 -80 -10 -8 -213 -281 -249
-335 -19 -27 -38 -54 -43 -60 -17 -20 -195 -293 -253 -390 -379 -624 -681
-1323 -865 -2005 -7 -25 -14 -49 -15 -55 -33 -118 -124 -523 -138 -620 -4 -22
-13 -80 -22 -130 -23 -136 -26 -159 -49 -347 -3 -24 -8 -59 -10 -78 -3 -19 -7
-71 -11 -115 -3 -44 -7 -93 -9 -108 -19 -156 -27 -857 -12 -1087 12 -187 28
-360 42 -465 2 -16 7 -59 11 -95 4 -36 8 -69 9 -75 1 -5 5 -32 9 -60 4 -27 11
-72 16 -100 5 -27 11 -66 14 -85 4 -30 42 -227 51 -270 7 -32 37 -166 40 -181
93 -436 321 -1093 537 -1549 80 -168 229 -459 248 -485 4 -5 22 -37 40 -70 58
-105 220 -366 318 -510 79 -117 301 -421 337 -462 5 -6 24 -29 40 -50 278
-350 666 -753 1007 -1045 46 -38 94 -80 108 -92 63 -54 315 -249 405 -314 55
-39 105 -75 111 -80 13 -12 348 -232 394 -259 19 -12 105 -62 190 -111 322
-186 553 -301 875 -436 61 -26 119 -51 130 -56 79 -35 551 -202 609 -215 12
-2 91 -25 176 -49 266 -77 374 -105 415 -111 33 -5 157 -29 315 -60 49 -10 77
-15 114 -20 21 -2 46 -6 55 -9 9 -3 39 -7 66 -11 28 -3 64 -8 80 -10 17 -2 50
-7 75 -10 25 -3 54 -7 65 -9 11 -2 54 -7 95 -11 41 -4 89 -9 105 -11 31 -3
118 -10 240 -19 182 -14 650 -19 840 -10 180 8 311 16 325 20 8 2 56 6 106 10
51 3 100 7 110 9 11 2 48 7 84 11 36 3 76 8 90 10 14 2 45 7 70 10 43 6 193
30 255 40 17 3 53 10 80 16 28 5 66 12 85 15 19 3 41 7 49 10 8 2 30 7 50 10
57 9 426 100 562 139 278 81 735 245 939 338 30 13 89 39 130 57 99 43 416
202 560 282 439 244 949 597 1285 889 328 287 576 531 807 794 23 27 50 56 58
65 8 8 35 40 60 70 25 30 49 60 55 66 5 6 24 29 40 50 17 21 42 52 56 69 58
69 242 320 340 465 383 565 676 1143 911 1795 61 171 196 619 212 705 3 14 14
63 26 110 20 79 64 288 76 355 2 17 11 66 19 110 8 44 17 100 20 125 3 25 8
52 10 60 2 8 7 40 10 70 3 30 7 66 10 80 3 14 7 48 10 75 3 28 7 64 9 80 3 17
7 68 11 115 4 47 8 96 10 110 27 184 26 974 -1 1265 -2 28 -7 75 -9 105 -3 30
-8 73 -10 95 -3 22 -7 67 -10 100 -3 33 -10 85 -15 115 -5 30 -12 77 -15 104
-16 128 -73 429 -117 616 -11 47 -21 92 -23 100 -39 182 -152 555 -245 810
-23 63 -50 138 -60 165 -73 201 -285 657 -426 915 -150 277 -448 743 -581 910
-6 8 -42 56 -79 105 -63 84 -248 311 -309 380 -15 17 -59 66 -98 109 -40 43
-80 88 -90 100 -52 60 -350 354 -472 467 -44 40 -254 220 -280 241 -5 4 -26
20 -45 36 -92 76 -278 217 -395 300 -71 51 -135 95 -140 100 -16 11 -113 75
-190 124 -342 220 -766 444 -1140 603 -99 41 -189 80 -200 85 -42 18 -295 109
-425 152 -199 66 -323 102 -540 157 -164 42 -248 61 -425 97 -11 2 -90 15
-175 30 -204 33 -201 33 -245 39 -22 2 -73 9 -115 15 -41 5 -97 12 -125 14
-154 16 -282 27 -360 32 -76 5 -802 13 -807 9z"/>
</g>
</svg>
