<?xml version="1.0" standalone="no"?>
<!DOCTYPE svg PUBLIC "-//W3C//DTD SVG 20010904//EN"
 "http://www.w3.org/TR/2001/REC-SVG-20010904/DTD/svg10.dtd">
<svg version="1.0" xmlns="http://www.w3.org/2000/svg"
 width="600.000000pt" height="600.000000pt" viewBox="0 0 600.000000 600.000000"
 preserveAspectRatio="xMidYMid meet">
<metadata>
Created by potrace 1.14, written by Peter Selinger 2001-2017
</metadata>
<g transform="translate(0.000000,600.000000) scale(0.100000,-0.100000)"
fill="#000000" stroke="none">
<path d="M2044 5874 c-18 -14 -18 -15 4 -4 12 6 22 13 22 15 0 8 -5 6 -26 -11z"/>
<path d="M3940 5886 c0 -2 7 -7 16 -10 8 -3 12 -2 9 4 -6 10 -25 14 -25 6z"/>
<path d="M2815 5874 c-302 -45 -568 -146 -786 -299 -91 -65 -257 -211 -282
-248 l-17 -26 58 26 c186 83 341 116 542 116 355 0 660 -131 908 -387 179
-185 293 -408 338 -656 20 -113 20 -330 -1 -445 -102 -569 -596 -1007 -1175
-1042 -180 -11 -403 29 -577 105 -106 46 -108 38 -11 -53 245 -234 528 -384
861 -457 89 -20 131 -22 337 -22 262 0 331 10 539 79 574 191 1004 677 1131
1280 31 145 38 412 16 565 -57 392 -228 726 -508 995 -237 228 -516 375 -843
445 -79 17 -142 22 -300 25 -110 2 -213 1 -230 -1z"/>
<path d="M1944 5814 c-18 -14 -18 -15 4 -4 12 6 22 13 22 15 0 8 -5 6 -26 -11z"/>
<path d="M4085 5802 c6 -5 46 -35 89 -68 104 -77 241 -208 331 -315 377 -452
527 -1059 405 -1644 -148 -714 -711 -1299 -1424 -1480 -227 -57 -524 -73 -751
-40 -852 125 -1510 774 -1650 1625 -115 698 193 1444 767 1863 38 27 66 52 64
54 -6 6 -206 -82 -291 -128 -181 -96 -358 -212 -515 -338 -158 -127 -400 -378
-503 -521 -9 -14 -36 -52 -60 -85 -170 -238 -327 -558 -406 -825 -60 -200 -75
-266 -102 -445 -41 -272 -44 -569 -9 -840 11 -84 15 -111 35 -210 4 -22 9 -47
10 -55 21 -116 113 -396 177 -540 160 -362 365 -660 642 -935 91 -90 240 -220
306 -268 14 -9 52 -36 85 -60 324 -232 817 -439 1175 -492 20 -3 47 -8 60 -10
14 -3 45 -7 70 -10 25 -3 54 -8 65 -10 39 -8 241 -18 355 -18 278 0 535 36
815 112 322 88 739 299 1015 514 185 145 433 392 532 532 4 5 18 24 31 40 81
105 220 325 262 416 12 27 26 54 32 61 5 7 26 54 47 103 21 50 43 104 51 120
70 157 156 494 180 700 4 28 10 77 15 110 9 63 6 582 -3 625 -3 14 -11 59 -16
100 -16 111 -21 137 -42 230 -202 876 -781 1614 -1582 2016 -104 53 -276 129
-262 116z"/>
<path d="M2225 5200 c-371 -37 -705 -286 -846 -631 -56 -136 -73 -228 -73
-389 0 -115 5 -163 21 -230 27 -107 69 -211 121 -298 42 -70 118 -161 108
-129 -31 98 -31 308 0 422 35 131 106 255 203 359 221 233 556 315 863 210
345 -117 576 -460 555 -823 l-6 -94 26 37 c39 58 90 173 120 271 25 84 27 102
27 275 0 173 -2 191 -27 275 -104 340 -349 594 -672 698 -141 46 -277 61 -420
47z"/>
<path d="M2230 4304 c-107 -23 -205 -77 -285 -158 -82 -82 -127 -162 -155
-272 -24 -91 -25 -164 -5 -259 54 -260 290 -455 554 -457 86 -1 177 9 167 19
-3 3 -34 15 -69 27 -230 77 -386 294 -387 537 0 72 32 196 67 262 36 66 130
166 196 209 28 18 87 45 130 59 l78 27 -64 11 c-82 14 -146 13 -227 -5z"/>
<path d="M2302 3668 c19 -89 87 -177 167 -217 81 -42 210 -42 289 -2 56 29
121 96 148 154 37 81 31 93 -21 42 -25 -24 -71 -56 -103 -72 -51 -25 -67 -28
-162 -28 -96 0 -110 3 -165 29 -33 16 -83 53 -111 82 l-51 52 9 -40z"/>
</g>
</svg>
