<?xml version="1.0" standalone="no"?>
<!DOCTYPE svg PUBLIC "-//W3C//DTD SVG 20010904//EN"
 "http://www.w3.org/TR/2001/REC-SVG-20010904/DTD/svg10.dtd">
<svg version="1.0" xmlns="http://www.w3.org/2000/svg"
 width="650.000000pt" height="650.000000pt" viewBox="0 0 650.000000 650.000000"
 preserveAspectRatio="xMidYMid meet">
<metadata>
Created by potrace 1.14, written by Peter Selinger 2001-2017
</metadata>
<g transform="translate(0.000000,650.000000) scale(0.100000,-0.100000)"
fill="#000000" stroke="none">
<path d="M3946 5564 c-463 -84 -708 -498 -833 -1408 l-8 -60 -55 -13 c-191
-47 -328 -109 -430 -195 -130 -109 -255 -310 -300 -483 -58 -223 -23 -521 87
-740 68 -135 209 -251 436 -361 l117 -56 0 -77 c0 -109 -26 -364 -50 -501 -91
-502 -219 -735 -421 -765 -86 -13 -122 6 -245 126 -61 59 -123 113 -138 119
-104 39 -196 -33 -196 -155 0 -167 210 -277 500 -262 146 8 221 26 337 82 156
76 261 189 363 390 95 187 157 401 230 790 23 121 43 220 43 220 178 49 275
88 388 155 313 189 456 491 427 902 -13 183 -65 331 -163 458 -92 120 -278
247 -459 315 l-48 19 6 110 c52 862 200 1256 473 1256 67 0 99 -19 223 -134
136 -126 188 -148 259 -111 98 50 117 172 41 259 -95 108 -354 161 -584 120z
m-876 -1736 c0 -18 -11 -152 -25 -298 -35 -375 -54 -646 -62 -862 -3 -104 -7
-188 -8 -188 -14 0 -113 52 -160 83 -140 94 -243 242 -281 402 -22 93 -22 277
0 370 52 219 206 392 434 491 97 41 102 42 102 2z m572 -55 c136 -71 259 -251
309 -453 30 -118 23 -301 -14 -408 -50 -145 -142 -260 -276 -347 -80 -52 -234
-120 -239 -105 -2 5 8 120 22 257 41 402 76 891 76 1075 0 37 1 37 27 27 15
-5 58 -26 95 -46z"/>
</g>
</svg>
