<?xml version="1.0" standalone="no"?>
<!DOCTYPE svg PUBLIC "-//W3C//DTD SVG 20010904//EN"
 "http://www.w3.org/TR/2001/REC-SVG-20010904/DTD/svg10.dtd">
<svg version="1.0" xmlns="http://www.w3.org/2000/svg"
 width="2000.000000pt" height="2000.000000pt" viewBox="0 0 2000.000000 2000.000000"
 preserveAspectRatio="xMidYMid meet">
<metadata>
Created by potrace 1.14, written by Peter Selinger 2001-2017
</metadata>
<g transform="translate(0.000000,2000.000000) scale(0.100000,-0.100000)"
fill="#000000" stroke="none">
<path d="M10755 16959 c-167 -12 -229 -22 -465 -75 -88 -19 -304 -95 -375
-130 l-30 -15 30 6 c158 36 305 50 500 48 246 -1 446 -39 619 -117 97 -43 196
-97 196 -107 0 -4 -10 -11 -22 -14 -43 -13 -202 -96 -249 -130 -220 -158 -373
-365 -453 -612 -53 -163 -66 -408 -31 -578 51 -247 158 -448 334 -627 205
-208 456 -333 730 -365 418 -49 833 133 1076 472 48 67 107 166 110 185 0 3 6
14 12 25 22 41 62 173 77 255 33 180 24 370 -25 545 -25 87 -25 89 -83 205
-122 251 -448 577 -749 751 -219 127 -502 229 -707 255 -19 2 -46 6 -60 9 -94
17 -298 23 -435 14z"/>
<path d="M9068 16048 c-177 -186 -202 -213 -268 -288 -54 -62 -72 -83 -142
-165 -223 -260 -356 -488 -475 -813 -77 -210 -156 -531 -178 -717 -3 -27 -8
-66 -10 -85 -6 -42 -7 -283 -1 -360 5 -71 19 -172 31 -230 3 -14 8 -38 11 -55
56 -315 246 -709 473 -985 76 -92 111 -127 1891 -1909 949 -949 1748 -1752
1775 -1784 28 -32 63 -72 79 -90 149 -166 416 -537 515 -717 70 -127 143 -281
191 -404 103 -263 158 -548 155 -808 -3 -235 -38 -411 -116 -585 l-30 -68 118
122 c65 67 154 161 198 209 44 48 85 92 90 98 6 6 41 47 79 91 38 44 78 91 90
105 17 19 144 186 194 255 54 74 155 272 216 425 21 52 42 104 47 115 34 78
106 339 139 505 12 58 24 114 26 125 4 20 13 88 19 155 7 66 7 335 1 390 -4
30 -9 71 -11 90 -12 98 -19 135 -46 245 -28 115 -63 226 -89 290 -7 17 -19 46
-27 65 -72 171 -207 395 -340 560 -37 47 -849 866 -1803 1821 -954 955 -1766
1769 -1804 1810 -98 106 -125 137 -183 204 -291 343 -519 710 -653 1051 -66
169 -122 364 -136 477 -3 23 -7 48 -10 55 -8 26 -18 177 -18 282 0 146 13 266
41 375 8 33 16 65 17 72 1 7 5 16 9 19 4 4 7 14 7 23 0 9 15 51 34 94 19 42
33 77 32 77 -1 0 -63 -64 -138 -142z"/>
<path d="M6893 13873 c-236 -247 -305 -324 -465 -518 -44 -53 -141 -182 -150
-199 -6 -11 -14 -23 -17 -26 -40 -34 -167 -290 -246 -497 -81 -212 -166 -538
-189 -728 -3 -22 -8 -64 -11 -92 -4 -29 -7 -124 -7 -210 1 -523 189 -1037 530
-1446 42 -51 853 -869 1802 -1818 1578 -1579 1862 -1866 1946 -1969 16 -19 31
-37 35 -40 10 -9 193 -243 231 -295 32 -45 155 -232 185 -280 190 -311 332
-686 379 -1000 24 -162 23 -417 -1 -560 -20 -115 -81 -311 -107 -342 -6 -7 -8
-16 -4 -20 3 -3 39 27 78 69 603 621 793 897 964 1401 61 178 136 500 149 639
4 35 9 74 11 88 6 32 5 300 -1 365 -5 49 -23 180 -31 220 -2 11 -7 34 -10 50
-38 211 -172 544 -300 745 -61 96 -157 224 -227 303 -30 35 -837 846 -1794
1803 -1811 1812 -1799 1800 -1928 1954 -44 52 -82 97 -85 100 -3 3 -19 23 -35
45 -17 22 -32 42 -35 45 -5 5 -127 172 -158 217 -237 345 -424 763 -478 1073
-4 25 -8 47 -9 50 -1 5 -12 67 -22 125 -9 56 -10 330 -1 405 18 155 57 303
108 418 16 34 28 62 27 62 -1 0 -62 -62 -134 -137z"/>
<path d="M8237 5764 c-1 -1 -31 -5 -67 -9 -36 -4 -68 -9 -71 -11 -3 -2 -20 -6
-38 -9 -57 -10 -184 -56 -261 -95 -269 -136 -478 -377 -574 -662 -26 -79 -30
-94 -47 -193 -30 -168 -1 -458 61 -600 84 -198 169 -320 341 -495 133 -135
152 -152 279 -247 265 -198 591 -337 890 -379 19 -2 44 -6 55 -9 38 -7 210
-18 290 -18 169 0 395 26 545 63 25 6 58 13 75 16 36 7 257 80 305 101 19 8
49 22 65 30 l30 14 -30 -6 c-16 -3 -41 -7 -55 -10 -14 -3 -36 -7 -50 -10 -14
-2 -45 -7 -70 -10 -25 -4 -58 -9 -75 -12 -16 -3 -106 -6 -198 -7 -296 -4 -526
42 -736 148 -141 71 -150 79 -108 92 123 38 295 151 417 274 313 312 416 769
272 1205 -101 307 -353 587 -654 728 -103 48 -251 91 -358 103 -60 7 -228 13
-233 8z"/>
</g>
</svg>
