<?xml version="1.0" standalone="no"?>
<!DOCTYPE svg PUBLIC "-//W3C//DTD SVG 20010904//EN"
 "http://www.w3.org/TR/2001/REC-SVG-20010904/DTD/svg10.dtd">
<svg version="1.0" xmlns="http://www.w3.org/2000/svg"
 width="700.000000pt" height="700.000000pt" viewBox="0 0 700.000000 700.000000"
 preserveAspectRatio="xMidYMid meet">
<metadata>
Created by potrace 1.14, written by Peter Selinger 2001-2017
</metadata>
<g transform="translate(0.000000,700.000000) scale(0.100000,-0.100000)"
fill="#000000" stroke="none">
<path d="M3348 6605 c-1 -1 -30 -5 -63 -8 -33 -4 -70 -8 -81 -11 -12 -2 -39
-7 -60 -10 -92 -15 -263 -61 -319 -86 -11 -5 -45 -19 -75 -30 -30 -12 -102
-45 -160 -75 -58 -29 -136 -66 -175 -81 -752 -289 -1364 -880 -1680 -1620
-164 -383 -240 -762 -239 -1184 1 -121 10 -304 19 -348 1 -9 6 -39 9 -67 4
-27 8 -61 11 -75 3 -14 7 -38 10 -55 16 -94 55 -245 96 -373 202 -618 603
-1160 1133 -1530 429 -299 916 -478 1441 -529 161 -16 537 -8 675 13 19 3 44
7 55 8 107 14 449 95 480 114 6 4 12 7 15 8 132 25 611 261 745 366 6 5 48 36
95 70 47 34 87 65 90 68 3 3 34 29 70 59 65 55 258 245 315 311 403 463 661
1060 722 1666 16 156 8 593 -12 709 -3 17 -10 57 -16 90 -80 480 -273 923
-572 1320 -61 80 -78 100 -172 204 -105 115 -264 263 -350 326 -22 16 -42 32
-45 35 -14 16 -187 134 -275 187 -111 67 -278 153 -358 184 -87 34 -116 47
-282 129 -88 43 -207 94 -265 114 -105 35 -293 80 -386 91 -52 7 -390 15 -396
10z"/>
</g>
</svg>
