<?xml version="1.0" standalone="no"?>
<!DOCTYPE svg PUBLIC "-//W3C//DTD SVG 20010904//EN"
 "http://www.w3.org/TR/2001/REC-SVG-20010904/DTD/svg10.dtd">
<svg version="1.0" xmlns="http://www.w3.org/2000/svg"
 width="650.000000pt" height="650.000000pt" viewBox="0 0 650.000000 650.000000"
 preserveAspectRatio="xMidYMid meet">
<metadata>
Created by potrace 1.14, written by Peter Selinger 2001-2017
</metadata>
<g transform="translate(0.000000,650.000000) scale(0.100000,-0.100000)"
fill="#000000" stroke="none">
<path d="M4008 5825 c-2 -2 -24 -6 -49 -9 -146 -19 -302 -99 -414 -211 -168
-167 -287 -432 -370 -826 -9 -41 -18 -90 -21 -109 -2 -19 -6 -42 -9 -50 -2 -8
-7 -37 -11 -65 -3 -27 -7 -57 -9 -65 -1 -8 -6 -43 -10 -77 l-7 -63 -41 -11
c-106 -29 -237 -73 -287 -97 -212 -101 -392 -333 -461 -592 -33 -126 -33 -351
1 -495 25 -101 84 -250 123 -305 77 -111 285 -255 480 -334 l39 -16 -6 -142
c-3 -79 -8 -156 -10 -173 -2 -16 -7 -61 -11 -100 -4 -38 -8 -72 -10 -75 -1 -3
-6 -27 -9 -55 -9 -68 -53 -262 -82 -363 -72 -249 -173 -389 -306 -427 -69 -19
-126 -14 -172 15 -17 10 -71 60 -121 110 -94 95 -137 122 -190 122 -44 0 -70
-16 -105 -64 -24 -33 -30 -51 -30 -95 0 -123 101 -216 279 -257 83 -18 302
-14 392 8 385 94 591 403 733 1101 18 94 42 213 51 265 l16 95 95 27 c417 122
664 388 718 773 36 257 -13 502 -136 684 -88 130 -288 273 -481 346 l-48 18 6
116 c3 63 7 131 10 150 2 20 6 72 10 116 3 44 7 91 10 105 2 14 7 48 10 75 3
28 8 57 10 65 2 8 6 38 10 65 29 236 122 488 215 584 58 59 108 83 181 89 85
6 99 -1 268 -160 85 -79 99 -87 159 -92 146 -13 212 164 104 277 -70 74 -243
126 -413 125 -54 -1 -100 -2 -101 -3z m-931 -1722 c-3 -5 -8 -48 -12 -98 -3
-49 -8 -106 -10 -125 -12 -118 -17 -163 -20 -211 -7 -90 -15 -192 -20 -229 -2
-19 -7 -78 -11 -130 -3 -52 -8 -115 -9 -140 -2 -25 -7 -133 -10 -240 -4 -107
-9 -196 -10 -198 -7 -8 -137 63 -197 108 -160 121 -253 304 -262 518 -14 337
138 575 458 719 68 30 112 41 103 26z m583 -89 c100 -58 161 -131 230 -276
119 -249 107 -534 -31 -735 -83 -120 -236 -231 -401 -289 l-39 -13 6 81 c4 45
8 85 10 88 1 3 6 45 10 94 4 50 8 97 10 105 1 9 6 50 9 91 4 41 9 95 11 120
21 228 35 449 40 648 2 81 4 148 4 149 2 6 91 -34 141 -63z"/>
</g>
</svg>
